<mxfile host="app.diagrams.net" agent="Mozilla/5.0 (Windows NT 10.0; Win64; x64) AppleWebKit/537.36 (KHTML, like Gecko) Chrome/134.0.0.0 Safari/537.36" version="26.1.0" pages="2">
  <diagram name="Página-1" id="fF67J388-4EY3nTh-t3f">
    <mxGraphModel dx="1050" dy="557" grid="1" gridSize="10" guides="1" tooltips="1" connect="1" arrows="1" fold="1" page="1" pageScale="1" pageWidth="827" pageHeight="1169" math="0" shadow="0">
      <root>
        <mxCell id="0" />
        <mxCell id="1" parent="0" />
        <mxCell id="QV2dYTOA4kBZDlded7e_-15" style="edgeStyle=orthogonalEdgeStyle;rounded=0;orthogonalLoop=1;jettySize=auto;html=1;exitX=1;exitY=0.3333333333333333;exitDx=0;exitDy=0;exitPerimeter=0;entryX=0;entryY=0.5;entryDx=0;entryDy=0;" edge="1" parent="1" source="QV2dYTOA4kBZDlded7e_-1" target="QV2dYTOA4kBZDlded7e_-4">
          <mxGeometry relative="1" as="geometry" />
        </mxCell>
        <mxCell id="QV2dYTOA4kBZDlded7e_-16" style="edgeStyle=orthogonalEdgeStyle;rounded=0;orthogonalLoop=1;jettySize=auto;html=1;exitX=1;exitY=1;exitDx=0;exitDy=0;exitPerimeter=0;entryX=0;entryY=0.5;entryDx=0;entryDy=0;" edge="1" parent="1" source="QV2dYTOA4kBZDlded7e_-1" target="QV2dYTOA4kBZDlded7e_-5">
          <mxGeometry relative="1" as="geometry" />
        </mxCell>
        <mxCell id="QV2dYTOA4kBZDlded7e_-1" value="cliente" style="shape=umlActor;verticalLabelPosition=bottom;verticalAlign=top;html=1;outlineConnect=0;" vertex="1" parent="1">
          <mxGeometry x="50" y="210" width="30" height="60" as="geometry" />
        </mxCell>
        <mxCell id="QV2dYTOA4kBZDlded7e_-4" value="fazer reserva" style="ellipse;whiteSpace=wrap;html=1;aspect=fixed;" vertex="1" parent="1">
          <mxGeometry x="220" y="120" width="80" height="80" as="geometry" />
        </mxCell>
        <mxCell id="QV2dYTOA4kBZDlded7e_-5" value="cancelar reserva" style="ellipse;whiteSpace=wrap;html=1;aspect=fixed;" vertex="1" parent="1">
          <mxGeometry x="230" y="310" width="80" height="80" as="geometry" />
        </mxCell>
      </root>
    </mxGraphModel>
  </diagram>
  <diagram id="JNAwhe37V7hdn52TbLl9" name="Página-2">
    <mxGraphModel dx="1050" dy="557" grid="1" gridSize="10" guides="1" tooltips="1" connect="1" arrows="1" fold="1" page="1" pageScale="1" pageWidth="827" pageHeight="1169" math="0" shadow="0">
      <root>
        <mxCell id="0" />
        <mxCell id="1" parent="0" />
        <mxCell id="3spRDeEMfn-zQBJjM1Ot-3" value="Actor" style="shape=umlActor;verticalLabelPosition=bottom;verticalAlign=top;html=1;outlineConnect=0;" vertex="1" parent="1">
          <mxGeometry x="60" y="130" width="30" height="70" as="geometry" />
        </mxCell>
        <mxCell id="3spRDeEMfn-zQBJjM1Ot-4" value="" style="ellipse;whiteSpace=wrap;html=1;" vertex="1" parent="1">
          <mxGeometry x="270" y="110" width="120" height="60" as="geometry" />
        </mxCell>
        <mxCell id="3spRDeEMfn-zQBJjM1Ot-5" value="" style="ellipse;whiteSpace=wrap;html=1;" vertex="1" parent="1">
          <mxGeometry x="270" y="40" width="120" height="60" as="geometry" />
        </mxCell>
        <mxCell id="3spRDeEMfn-zQBJjM1Ot-6" value="" style="ellipse;whiteSpace=wrap;html=1;" vertex="1" parent="1">
          <mxGeometry x="270" y="180" width="120" height="60" as="geometry" />
        </mxCell>
        <mxCell id="3spRDeEMfn-zQBJjM1Ot-7" value="" style="ellipse;whiteSpace=wrap;html=1;" vertex="1" parent="1">
          <mxGeometry x="270" y="250" width="120" height="60" as="geometry" />
        </mxCell>
        <mxCell id="3spRDeEMfn-zQBJjM1Ot-8" value="" style="ellipse;whiteSpace=wrap;html=1;" vertex="1" parent="1">
          <mxGeometry x="270" y="320" width="120" height="60" as="geometry" />
        </mxCell>
        <mxCell id="3spRDeEMfn-zQBJjM1Ot-15" value="Actor" style="shape=umlActor;verticalLabelPosition=bottom;verticalAlign=top;html=1;outlineConnect=0;" vertex="1" parent="1">
          <mxGeometry x="60" y="460" width="30" height="60" as="geometry" />
        </mxCell>
        <mxCell id="3spRDeEMfn-zQBJjM1Ot-18" value="Actor" style="shape=umlActor;verticalLabelPosition=bottom;verticalAlign=top;html=1;outlineConnect=0;" vertex="1" parent="1">
          <mxGeometry x="590" y="140" width="80" height="160" as="geometry" />
        </mxCell>
        <mxCell id="3spRDeEMfn-zQBJjM1Ot-20" value="" style="ellipse;whiteSpace=wrap;html=1;" vertex="1" parent="1">
          <mxGeometry x="280" y="410" width="120" height="70" as="geometry" />
        </mxCell>
        <mxCell id="3spRDeEMfn-zQBJjM1Ot-21" value="" style="ellipse;whiteSpace=wrap;html=1;" vertex="1" parent="1">
          <mxGeometry x="280" y="490" width="120" height="70" as="geometry" />
        </mxCell>
        <mxCell id="3spRDeEMfn-zQBJjM1Ot-24" value="" style="endArrow=none;html=1;rounded=0;entryX=-0.04;entryY=0.643;entryDx=0;entryDy=0;entryPerimeter=0;" edge="1" parent="1" target="3spRDeEMfn-zQBJjM1Ot-5">
          <mxGeometry width="50" height="50" relative="1" as="geometry">
            <mxPoint x="100" y="150" as="sourcePoint" />
            <mxPoint x="237.20000000000005" y="97.79999999999995" as="targetPoint" />
          </mxGeometry>
        </mxCell>
        <mxCell id="3spRDeEMfn-zQBJjM1Ot-25" value="" style="endArrow=none;html=1;rounded=0;" edge="1" parent="1">
          <mxGeometry width="50" height="50" relative="1" as="geometry">
            <mxPoint x="100" y="180" as="sourcePoint" />
            <mxPoint x="260" y="210" as="targetPoint" />
          </mxGeometry>
        </mxCell>
        <mxCell id="3spRDeEMfn-zQBJjM1Ot-28" value="" style="endArrow=none;html=1;rounded=0;" edge="1" parent="1">
          <mxGeometry width="50" height="50" relative="1" as="geometry">
            <mxPoint x="110" y="160" as="sourcePoint" />
            <mxPoint x="260" y="150" as="targetPoint" />
          </mxGeometry>
        </mxCell>
        <mxCell id="3spRDeEMfn-zQBJjM1Ot-31" value="" style="endArrow=none;html=1;rounded=0;" edge="1" parent="1">
          <mxGeometry width="50" height="50" relative="1" as="geometry">
            <mxPoint x="260" y="270" as="sourcePoint" />
            <mxPoint x="100" y="200" as="targetPoint" />
          </mxGeometry>
        </mxCell>
        <mxCell id="3spRDeEMfn-zQBJjM1Ot-32" value="" style="endArrow=none;html=1;rounded=0;" edge="1" parent="1">
          <mxGeometry width="50" height="50" relative="1" as="geometry">
            <mxPoint x="100" y="490" as="sourcePoint" />
            <mxPoint x="270" y="450" as="targetPoint" />
          </mxGeometry>
        </mxCell>
        <mxCell id="3spRDeEMfn-zQBJjM1Ot-33" value="" style="endArrow=none;html=1;rounded=0;" edge="1" parent="1">
          <mxGeometry width="50" height="50" relative="1" as="geometry">
            <mxPoint x="100" y="510" as="sourcePoint" />
            <mxPoint x="270" y="530" as="targetPoint" />
          </mxGeometry>
        </mxCell>
        <mxCell id="3spRDeEMfn-zQBJjM1Ot-34" value="" style="endArrow=none;html=1;rounded=0;" edge="1" parent="1">
          <mxGeometry width="50" height="50" relative="1" as="geometry">
            <mxPoint x="410" y="340" as="sourcePoint" />
            <mxPoint x="570" y="240" as="targetPoint" />
          </mxGeometry>
        </mxCell>
        <mxCell id="3spRDeEMfn-zQBJjM1Ot-35" value="" style="endArrow=none;html=1;rounded=0;" edge="1" parent="1">
          <mxGeometry width="50" height="50" relative="1" as="geometry">
            <mxPoint x="400" y="280" as="sourcePoint" />
            <mxPoint x="570" y="220" as="targetPoint" />
          </mxGeometry>
        </mxCell>
        <mxCell id="3spRDeEMfn-zQBJjM1Ot-36" value="" style="endArrow=none;html=1;rounded=0;" edge="1" parent="1">
          <mxGeometry width="50" height="50" relative="1" as="geometry">
            <mxPoint x="400" y="210" as="sourcePoint" />
            <mxPoint x="570" y="200" as="targetPoint" />
          </mxGeometry>
        </mxCell>
        <mxCell id="3spRDeEMfn-zQBJjM1Ot-38" value="" style="endArrow=none;html=1;rounded=0;" edge="1" parent="1">
          <mxGeometry width="50" height="50" relative="1" as="geometry">
            <mxPoint x="410" y="150" as="sourcePoint" />
            <mxPoint x="570" y="190" as="targetPoint" />
          </mxGeometry>
        </mxCell>
        <mxCell id="3spRDeEMfn-zQBJjM1Ot-40" value="" style="endArrow=none;html=1;rounded=0;" edge="1" parent="1">
          <mxGeometry width="50" height="50" relative="1" as="geometry">
            <mxPoint x="400" y="80" as="sourcePoint" />
            <mxPoint x="560" y="160" as="targetPoint" />
          </mxGeometry>
        </mxCell>
        <mxCell id="3spRDeEMfn-zQBJjM1Ot-41" value="" style="endArrow=none;html=1;rounded=0;" edge="1" parent="1">
          <mxGeometry width="50" height="50" relative="1" as="geometry">
            <mxPoint x="410" y="430" as="sourcePoint" />
            <mxPoint x="580" y="310" as="targetPoint" />
          </mxGeometry>
        </mxCell>
        <mxCell id="3spRDeEMfn-zQBJjM1Ot-42" value="" style="endArrow=none;html=1;rounded=0;" edge="1" parent="1">
          <mxGeometry width="50" height="50" relative="1" as="geometry">
            <mxPoint x="390" y="490" as="sourcePoint" />
            <mxPoint x="590" y="320" as="targetPoint" />
          </mxGeometry>
        </mxCell>
      </root>
    </mxGraphModel>
  </diagram>
</mxfile>
